<?xml version="1.0" encoding="UTF-8" standalone="no"?>
<svg xmlns="http://www.w3.org/2000/svg" viewBox="0 0 400 400" width="16" height="16" preserveAspectRatio="xMidYMid meet">
    <g stroke="#000" stroke-width="20">
        <path fill="#31A354" d="M134 17.7c-2.8.8-7.3 1.2-11.2 4.9-9.8 9.4-12.7 18.3-11.5 35.6 1.2 17 .1 28.7 15 49 10 13.4.5 22.7.5 34.6 0 12.4-2.3 14.2-24 18.3-16.8 3.1-21.8 3.3-32 1.2-23.6-4.8-35.8-2.4-48.7 9.6-6 5.7-9.1 16-6.8 23.3.8 2.5 4.2 7.6 7.5 11.4 6 6.9 6 7 2.7 15a48.1 48.1 0 0 0 3.2 37.4c3.3 5.6 3.8 8.4 2.2 12.5-5 13-.6 27.7 11.3 38.5 4.2 3.8 7.5 8.9 7.5 11.4 0 2.4 1.5 9.3 3.2 15.2A30.6 30.6 0 0 0 77 358.1c4 .8 11.6.6 17.4.7h22.4c13-.3 27.3.3 39 0 5.4-.2 10.7 0 16-.5 7.3-.7 11-1 21.4-3.4 10.5-2.4 25.2-4.3 32.6-4.3 11.8 0 41.2.6 41.2 3.8 0 8.8 4.4 10.7 36.5 15.8 17.2 2.7 33.1 4.5 35.4 4 6-1.3 19.1-12.4 28.2-39 10.9-31.9 8.4-57 16-94.6 5.1-24.7 5.4-32.4 1.3-35.8-3.2-2.7-33-7.3-69.5-10.7-20-1.8-24.4-1.7-28.4 1-4.4 2.8-5.6 2.6-15.3-3-11.5-6.5-21-10.6-35-30.7-8-11.5-9.8-16.2-31.8-34.4-23.5-19.3-34.3-50.2-41-68.2-3.7-9.6-17-24.6-21-33.8-1.9-4.4-6.4-7.6-8.3-7.3z"/>
        <path fill="none" d="M283.2 196s4.4 39.8-.5 73.6c-4.8 33.7-15.7 84.6-15.7 84.6"/>
    </g>
</svg>